{"accessors":[{"name":"Extrude.7-Mesh_0_positions","componentType":5126,"count":864,"min":[368.4270935058594,1.6284719705581665,-16.347900390625],"max":[428.3085632324219,66.84896850585938,12.55148696899414],"type":"VEC3","bufferView":0,"byteOffset":0},{"name":"Extrude.7-Mesh_0_normals","componentType":5126,"count":864,"min":[-1,-0.9999985694885254,0],"max":[0.9999997615814209,1,0],"type":"VEC3","bufferView":1,"byteOffset":0},{"name":"Extrude.7-Mesh_0_indices","componentType":5123,"count":2400,"min":[0],"max":[863],"type":"SCALAR","bufferView":2,"byteOffset":0},{"name":"Cap:1-Mesh_0_positions","componentType":5126,"count":375,"min":[368.4270935058594,1.6284719705581665,-16.347900390625],"max":[425.1201171875,66.84896850585938,-7.192725658416748],"type":"VEC3","bufferView":0,"byteOffset":10368},{"name":"Cap:1-Mesh_0_normals","componentType":5126,"count":375,"min":[0,0,-1],"max":[0,0,-1],"type":"VEC3","bufferView":1,"byteOffset":10368},{"name":"Cap:1-Mesh_0_indices","componentType":5123,"count":1167,"min":[0],"max":[374],"type":"SCALAR","bufferView":2,"byteOffset":4800},{"name":"Cap:2-Mesh_0_positions","componentType":5126,"count":398,"min":[371.6155090332031,1.6284719705581665,3.3963119983673096],"max":[428.3085632324219,66.84896850585938,12.55148696899414],"type":"VEC3","bufferView":0,"byteOffset":14868},{"name":"Cap:2-Mesh_0_normals","componentType":5126,"count":398,"min":[0,0,1],"max":[0,0,1],"type":"VEC3","bufferView":1,"byteOffset":14868},{"name":"Cap:2-Mesh_0_indices","componentType":5123,"count":1212,"min":[0],"max":[397],"type":"SCALAR","bufferView":2,"byteOffset":7136},{"name":"Extrude.6-Mesh_0_positions","componentType":5126,"count":68,"min":[368.4798889160156,46.30967330932617,-9.710755348205566],"max":[387.20831298828125,66.73822021484375,12.542957305908203],"type":"VEC3","bufferView":0,"byteOffset":19644},{"name":"Extrude.6-Mesh_0_normals","componentType":5126,"count":68,"min":[-0.9999665021896362,-0.9207384586334229,0],"max":[0.7948148250579834,1,0],"type":"VEC3","bufferView":1,"byteOffset":19644},{"name":"Extrude.6-Mesh_0_indices","componentType":5123,"count":186,"min":[0],"max":[67],"type":"SCALAR","bufferView":2,"byteOffset":9560},{"name":"Cap:1_1-Mesh_0_positions","componentType":5126,"count":31,"min":[368.4798889160156,46.30967330932617,-9.710755348205566],"max":[384.0198669433594,66.73822021484375,-7.201254844665527],"type":"VEC3","bufferView":0,"byteOffset":20460},{"name":"Cap:1_1-Mesh_0_normals","componentType":5126,"count":31,"min":[0,0,-1],"max":[0,0,1],"type":"VEC3","bufferView":1,"byteOffset":20460},{"name":"Cap:1_1-Mesh_0_indices","componentType":5123,"count":87,"min":[0],"max":[30],"type":"SCALAR","bufferView":2,"byteOffset":9932},{"name":"Cap:1_1-Mesh_1_positions","componentType":5126,"count":1,"min":[425.1182556152344,20.57417106628418,-16.347597122192383],"max":[425.1182556152344,20.57417106628418,-16.347597122192383],"type":"VEC3","bufferView":0,"byteOffset":20832},{"name":"Cap:1_1-Mesh_1_indices","componentType":5123,"count":84,"min":[0],"max":[0],"type":"SCALAR","bufferView":2,"byteOffset":10108},{"name":"Cap:2_1-Mesh_0_positions","componentType":5126,"count":31,"min":[371.6683349609375,46.30967330932617,10.033456802368164],"max":[387.20831298828125,66.73822021484375,12.542957305908203],"type":"VEC3","bufferView":0,"byteOffset":20844},{"name":"Cap:2_1-Mesh_0_normals","componentType":5126,"count":31,"min":[0,0,1],"max":[0,0,1],"type":"VEC3","bufferView":1,"byteOffset":20832},{"name":"Cap:2_1-Mesh_0_indices","componentType":5123,"count":87,"min":[0],"max":[30],"type":"SCALAR","bufferView":2,"byteOffset":10276},{"name":"Cap:2_1-Mesh_1_positions","componentType":5126,"count":1,"min":[425.1182556152344,20.57417106628418,-16.347597122192383],"max":[425.1182556152344,20.57417106628418,-16.347597122192383],"type":"VEC3","bufferView":0,"byteOffset":21216},{"name":"Cap:2_1-Mesh_1_indices","componentType":5123,"count":84,"min":[0],"max":[0],"type":"SCALAR","bufferView":2,"byteOffset":10452},{"name":"Extrude.5-Mesh_0_positions","componentType":5126,"count":272,"min":[321.46600341796875,1.6401469707489014,-6.560127258300781],"max":[367.69818115234375,56.95039367675781,20.13507843017578],"type":"VEC3","bufferView":0,"byteOffset":21228},{"name":"Extrude.5-Mesh_0_normals","componentType":5126,"count":272,"min":[-0.9999998211860657,-0.9999496340751648,0],"max":[0.9999776482582092,0.9999997615814209,0],"type":"VEC3","bufferView":1,"byteOffset":21204},{"name":"Extrude.5-Mesh_0_indices","componentType":5123,"count":810,"min":[0],"max":[271],"type":"SCALAR","bufferView":2,"byteOffset":10620},{"name":"Cap:1_2-Mesh_0_positions","componentType":5126,"count":135,"min":[321.46600341796875,1.6401469707489014,-6.560127258300781],"max":[364.5097351074219,56.95039367675781,0.3908667266368866],"type":"VEC3","bufferView":0,"byteOffset":24492},{"name":"Cap:1_2-Mesh_0_normals","componentType":5126,"count":135,"min":[0,0,-1],"max":[0,0,1],"type":"VEC3","bufferView":1,"byteOffset":24468},{"name":"Cap:1_2-Mesh_0_indices","componentType":5123,"count":399,"min":[0],"max":[134],"type":"SCALAR","bufferView":2,"byteOffset":12240},{"name":"Cap:1_2-Mesh_1_positions","componentType":5126,"count":1,"min":[425.1182556152344,20.57417106628418,-16.347597122192383],"max":[425.1182556152344,20.57417106628418,-16.347597122192383],"type":"VEC3","bufferView":0,"byteOffset":26112},{"name":"Cap:1_2-Mesh_1_indices","componentType":5123,"count":396,"min":[0],"max":[0],"type":"SCALAR","bufferView":2,"byteOffset":13040},{"name":"Cap:2_2-Mesh_0_positions","componentType":5126,"count":135,"min":[324.6544189453125,1.6401469707489014,13.18408489227295],"max":[367.69818115234375,56.95039367675781,20.13507843017578],"type":"VEC3","bufferView":0,"byteOffset":26124},{"name":"Cap:2_2-Mesh_0_normals","componentType":5126,"count":135,"min":[0,0,1],"max":[0,0,1],"type":"VEC3","bufferView":1,"byteOffset":26088},{"name":"Cap:2_2-Mesh_0_indices","componentType":5123,"count":399,"min":[0],"max":[134],"type":"SCALAR","bufferView":2,"byteOffset":13832},{"name":"Cap:2_2-Mesh_1_positions","componentType":5126,"count":1,"min":[425.1182556152344,20.57417106628418,-16.347597122192383],"max":[425.1182556152344,20.57417106628418,-16.347597122192383],"type":"VEC3","bufferView":0,"byteOffset":27744},{"name":"Cap:2_2-Mesh_1_indices","componentType":5123,"count":396,"min":[0],"max":[0],"type":"SCALAR","bufferView":2,"byteOffset":14632},{"name":"Extrude.4-Mesh_0_positions","componentType":5126,"count":88,"min":[350.63824462890625,45.239070892333984,-7.07358980178833],"max":[370.8777770996094,66.69795989990234,15.424149513244629],"type":"VEC3","bufferView":0,"byteOffset":27756},{"name":"Extrude.4-Mesh_0_normals","componentType":5126,"count":88,"min":[-0.9999960064888,-0.771062970161438,0],"max":[0.7909227609634399,1,0],"type":"VEC3","bufferView":1,"byteOffset":27708},{"name":"Extrude.4-Mesh_0_indices","componentType":5123,"count":252,"min":[0],"max":[87],"type":"SCALAR","bufferView":2,"byteOffset":15424},{"name":"Cap:1_3-Mesh_0_positions","componentType":5126,"count":42,"min":[350.63824462890625,45.239070892333984,-7.07358980178833],"max":[367.6893310546875,66.69795989990234,-4.320062637329102],"type":"VEC3","bufferView":0,"byteOffset":28812},{"name":"Cap:1_3-Mesh_0_normals","componentType":5126,"count":42,"min":[0,0,-1],"max":[0,0,1],"type":"VEC3","bufferView":1,"byteOffset":28764},{"name":"Cap:1_3-Mesh_0_indices","componentType":5123,"count":120,"min":[0],"max":[41],"type":"SCALAR","bufferView":2,"byteOffset":15928},{"name":"Cap:1_3-Mesh_1_positions","componentType":5126,"count":1,"min":[425.1182556152344,20.57417106628418,-16.347597122192383],"max":[425.1182556152344,20.57417106628418,-16.347597122192383],"type":"VEC3","bufferView":0,"byteOffset":29316},{"name":"Cap:1_3-Mesh_1_indices","componentType":5123,"count":117,"min":[0],"max":[0],"type":"SCALAR","bufferView":2,"byteOffset":16168},{"name":"Cap:2_3-Mesh_0_positions","componentType":5126,"count":42,"min":[353.82666015625,45.239070892333984,12.670622825622559],"max":[370.8777770996094,66.69795989990234,15.424149513244629],"type":"VEC3","bufferView":0,"byteOffset":29328},{"name":"Cap:2_3-Mesh_0_normals","componentType":5126,"count":42,"min":[0,0,1],"max":[0,0,1],"type":"VEC3","bufferView":1,"byteOffset":29268},{"name":"Cap:2_3-Mesh_0_indices","componentType":5123,"count":120,"min":[0],"max":[41],"type":"SCALAR","bufferView":2,"byteOffset":16404},{"name":"Cap:2_3-Mesh_1_positions","componentType":5126,"count":1,"min":[425.1182556152344,20.57417106628418,-16.347597122192383],"max":[425.1182556152344,20.57417106628418,-16.347597122192383],"type":"VEC3","bufferView":0,"byteOffset":29832},{"name":"Cap:2_3-Mesh_1_indices","componentType":5123,"count":117,"min":[0],"max":[0],"type":"SCALAR","bufferView":2,"byteOffset":16644},{"name":"Extrude.3-Mesh_0_positions","componentType":5126,"count":364,"min":[293.95721435546875,1.4700720310211182,-3.6543028354644775],"max":[349.7039794921875,66.42340087890625,24.5773868560791],"type":"VEC3","bufferView":0,"byteOffset":29844},{"name":"Extrude.3-Mesh_0_normals","componentType":5126,"count":364,"min":[-0.9999978542327881,-0.9999983310699463,0],"max":[0.9999968409538269,0.9999998211860657,0],"type":"VEC3","bufferView":1,"byteOffset":29772},{"name":"Extrude.3-Mesh_0_indices","componentType":5123,"count":1008,"min":[0],"max":[363],"type":"SCALAR","bufferView":2,"byteOffset":16880},{"name":"Cap:1_4-Mesh_0_positions","componentType":5126,"count":168,"min":[293.95721435546875,1.4700720310211182,-3.6543028354644775],"max":[346.5155334472656,66.42340087890625,4.833173751831055],"type":"VEC3","bufferView":0,"byteOffset":34212},{"name":"Cap:1_4-Mesh_0_normals","componentType":5126,"count":168,"min":[0,0,-1],"max":[0,0,-1],"type":"VEC3","bufferView":1,"byteOffset":34140},{"name":"Cap:1_4-Mesh_0_indices","componentType":5123,"count":504,"min":[0],"max":[167],"type":"SCALAR","bufferView":2,"byteOffset":18896},{"name":"Cap:2_4-Mesh_0_positions","componentType":5126,"count":168,"min":[297.1456298828125,1.4700720310211182,16.089908599853516],"max":[349.7039794921875,66.42340087890625,24.5773868560791],"type":"VEC3","bufferView":0,"byteOffset":36228},{"name":"Cap:2_4-Mesh_0_normals","componentType":5126,"count":168,"min":[0,0,1],"max":[0,0,1],"type":"VEC3","bufferView":1,"byteOffset":36156},{"name":"Cap:2_4-Mesh_0_indices","componentType":5123,"count":504,"min":[0],"max":[167],"type":"SCALAR","bufferView":2,"byteOffset":19904},{"name":"Extrude.2-Mesh_0_positions","componentType":5126,"count":594,"min":[250.6031951904297,7.267196178436279,3.257791757583618],"max":[283.68524169921875,56.56252670288086,27.829429626464844],"type":"VEC3","bufferView":0,"byteOffset":38244},{"name":"Extrude.2-Mesh_0_normals","componentType":5126,"count":594,"min":[-0.9999997019767761,-0.999981701374054,0],"max":[0.9999925494194031,0.9999919533729553,0],"type":"VEC3","bufferView":1,"byteOffset":38172},{"name":"Extrude.2-Mesh_0_indices","componentType":5123,"count":1770,"min":[0],"max":[593],"type":"SCALAR","bufferView":2,"byteOffset":20912},{"name":"Cap:1_5-Mesh_0_positions","componentType":5126,"count":295,"min":[250.6031951904297,7.267196178436279,3.257791757583618],"max":[280.496826171875,56.56252670288086,8.085216522216797],"type":"VEC3","bufferView":0,"byteOffset":45372},{"name":"Cap:1_5-Mesh_0_normals","componentType":5126,"count":295,"min":[0,0,-1],"max":[0,0,1],"type":"VEC3","bufferView":1,"byteOffset":45300},{"name":"Cap:1_5-Mesh_0_indices","componentType":5123,"count":879,"min":[0],"max":[294],"type":"SCALAR","bufferView":2,"byteOffset":24452},{"name":"Cap:1_5-Mesh_1_positions","componentType":5126,"count":1,"min":[425.1182556152344,20.57417106628418,-16.347597122192383],"max":[425.1182556152344,20.57417106628418,-16.347597122192383],"type":"VEC3","bufferView":0,"byteOffset":48912},{"name":"Cap:1_5-Mesh_1_indices","componentType":5123,"count":876,"min":[0],"max":[0],"type":"SCALAR","bufferView":2,"byteOffset":26212},{"name":"Cap:2_5-Mesh_0_positions","componentType":5126,"count":295,"min":[253.7916259765625,7.267196178436279,23.002004623413086],"max":[283.68524169921875,56.56252670288086,27.829429626464844],"type":"VEC3","bufferView":0,"byteOffset":48924},{"name":"Cap:2_5-Mesh_0_normals","componentType":5126,"count":295,"min":[0,0,1],"max":[0,0,1],"type":"VEC3","bufferView":1,"byteOffset":48840},{"name":"Cap:2_5-Mesh_0_indices","componentType":5123,"count":879,"min":[0],"max":[294],"type":"SCALAR","bufferView":2,"byteOffset":27964},{"name":"Cap:2_5-Mesh_1_positions","componentType":5126,"count":1,"min":[425.1182556152344,20.57417106628418,-16.347597122192383],"max":[425.1182556152344,20.57417106628418,-16.347597122192383],"type":"VEC3","bufferView":0,"byteOffset":52464},{"name":"Cap:2_5-Mesh_1_indices","componentType":5123,"count":876,"min":[0],"max":[0],"type":"SCALAR","bufferView":2,"byteOffset":29724},{"name":"Extrude.1-Mesh_0_positions","componentType":5126,"count":1040,"min":[245.06143188476562,17.65226173400879,5.153735637664795],"max":[287.1602783203125,44.420692443847656,31.18146514892578],"type":"VEC3","bufferView":0,"byteOffset":52476},{"name":"Extrude.1-Mesh_0_normals","componentType":5126,"count":1040,"min":[-1,-0.999959409236908,0],"max":[1,0.9999961256980896,0],"type":"VEC3","bufferView":1,"byteOffset":52380},{"name":"Extrude.1-Mesh_0_indices","componentType":5123,"count":3000,"min":[0],"max":[1039],"type":"SCALAR","bufferView":2,"byteOffset":31476},{"name":"Cap:1_6-Mesh_0_positions","componentType":5126,"count":500,"min":[245.06143188476562,17.65226173400879,5.153735637664795],"max":[283.9718322753906,44.420692443847656,11.437252044677734],"type":"VEC3","bufferView":0,"byteOffset":64956},{"name":"Cap:1_6-Mesh_0_normals","componentType":5126,"count":500,"min":[0,0,-1],"max":[0,0,1],"type":"VEC3","bufferView":1,"byteOffset":64860},{"name":"Cap:1_6-Mesh_0_indices","componentType":5123,"count":1458,"min":[0],"max":[499],"type":"SCALAR","bufferView":2,"byteOffset":37476},{"name":"Cap:1_6-Mesh_1_positions","componentType":5126,"count":7,"min":[425.1182556152344,20.57417106628418,-16.347597122192383],"max":[425.1182556152344,20.57417106628418,-16.347597122192383],"type":"VEC3","bufferView":0,"byteOffset":70956},{"name":"Cap:1_6-Mesh_1_indices","componentType":5123,"count":1437,"min":[0],"max":[6],"type":"SCALAR","bufferView":2,"byteOffset":40392},{"name":"Cap:2_6-Mesh_0_positions","componentType":5126,"count":500,"min":[248.24986267089844,17.65226173400879,24.897947311401367],"max":[287.1602783203125,44.420692443847656,31.18146514892578],"type":"VEC3","bufferView":0,"byteOffset":71040},{"name":"Cap:2_6-Mesh_0_normals","componentType":5126,"count":500,"min":[0,0,1],"max":[0,0,1],"type":"VEC3","bufferView":1,"byteOffset":70860},{"name":"Cap:2_6-Mesh_0_indices","componentType":5123,"count":1458,"min":[0],"max":[499],"type":"SCALAR","bufferView":2,"byteOffset":43268},{"name":"Cap:2_6-Mesh_1_positions","componentType":5126,"count":7,"min":[425.1182556152344,20.57417106628418,-16.347597122192383],"max":[425.1182556152344,20.57417106628418,-16.347597122192383],"type":"VEC3","bufferView":0,"byteOffset":77040},{"name":"Cap:2_6-Mesh_1_indices","componentType":5123,"count":1437,"min":[0],"max":[6],"type":"SCALAR","bufferView":2,"byteOffset":46184},{"name":"Extrude-Mesh_0_positions","componentType":5126,"count":112,"min":[239.19696044921875,1.297989010810852,5.473296165466309],"max":[293.18170166015625,66.46896362304688,33.420440673828125],"type":"VEC3","bufferView":0,"byteOffset":77124},{"name":"Extrude-Mesh_0_normals","componentType":5126,"count":112,"min":[-0.9999969601631165,-0.9999966025352478,0],"max":[1,1,0],"type":"VEC3","bufferView":1,"byteOffset":76860},{"name":"Extrude-Mesh_0_indices","componentType":5123,"count":300,"min":[0],"max":[111],"type":"SCALAR","bufferView":2,"byteOffset":49060},{"name":"Cap:1_7-Mesh_0_positions","componentType":5126,"count":50,"min":[239.19696044921875,1.297989010810852,5.473296165466309],"max":[289.9932861328125,66.46896362304688,13.676226615905762],"type":"VEC3","bufferView":0,"byteOffset":78468},{"name":"Cap:1_7-Mesh_0_normals","componentType":5126,"count":50,"min":[0,0,-1],"max":[0,0,1],"type":"VEC3","bufferView":1,"byteOffset":78204},{"name":"Cap:1_7-Mesh_0_indices","componentType":5123,"count":144,"min":[0],"max":[49],"type":"SCALAR","bufferView":2,"byteOffset":49660},{"name":"Cap:1_7-Mesh_1_positions","componentType":5126,"count":1,"min":[425.1182556152344,20.57417106628418,-16.347597122192383],"max":[425.1182556152344,20.57417106628418,-16.347597122192383],"type":"VEC3","bufferView":0,"byteOffset":79068},{"name":"Cap:1_7-Mesh_1_indices","componentType":5123,"count":141,"min":[0],"max":[0],"type":"SCALAR","bufferView":2,"byteOffset":49948},{"name":"Cap:2_7-Mesh_0_positions","componentType":5126,"count":50,"min":[242.38539123535156,1.297989010810852,25.21750831604004],"max":[293.18170166015625,66.46896362304688,33.420440673828125],"type":"VEC3","bufferView":0,"byteOffset":79080},{"name":"Cap:2_7-Mesh_0_normals","componentType":5126,"count":50,"min":[0,0,1],"max":[0,0,1],"type":"VEC3","bufferView":1,"byteOffset":78804},{"name":"Cap:2_7-Mesh_0_indices","componentType":5123,"count":144,"min":[0],"max":[49],"type":"SCALAR","bufferView":2,"byteOffset":50232},{"name":"Cap:2_7-Mesh_1_positions","componentType":5126,"count":1,"min":[425.1182556152344,20.57417106628418,-16.347597122192383],"max":[425.1182556152344,20.57417106628418,-16.347597122192383],"type":"VEC3","bufferView":0,"byteOffset":79680},{"name":"Cap:2_7-Mesh_1_indices","componentType":5123,"count":141,"min":[0],"max":[0],"type":"SCALAR","bufferView":2,"byteOffset":50520}],"asset":{"generator":"obj2gltf","version":"2.0"},"buffers":[{"name":"input","byteLength":209900,"uri":"data:application/octet-stream;base64,"}],"bufferViews":[{"name":"bufferView_0","buffer":0,"byteLength":79692,"byteOffset":0,"byteStride":12,"target":34962},{"name":"bufferView_1","buffer":0,"byteLength":79404,"byteOffset":79692,"byteStride":12,"target":34962},{"name":"bufferView_3","buffer":0,"byteLength":50804,"byteOffset":159096,"target":34963}],"materials":[{"name":"Mat.2","pbrMetallicRoughness":{"baseColorFactor":[0.5,0.5,0.5,1],"metallicFactor":0,"roughnessFactor":1},"emissiveFactor":[0,0,0],"alphaMode":"OPAQUE","doubleSided":false},{"name":"default","pbrMetallicRoughness":{"baseColorFactor":[0.5,0.5,0.5,1],"metallicFactor":0,"roughnessFactor":1},"emissiveFactor":[0,0,0],"alphaMode":"OPAQUE","doubleSided":false},{"name":"Mat.1","pbrMetallicRoughness":{"baseColorFactor":[0.5,0.5,0.5,1],"metallicFactor":0,"roughnessFactor":1},"emissiveFactor":[0,0,0],"alphaMode":"OPAQUE","doubleSided":false},{"name":"default-2","pbrMetallicRoughness":{"baseColorFactor":[0.5,0.5,0.5,1],"metallicFactor":0,"roughnessFactor":1},"emissiveFactor":[0,0,0],"alphaMode":"OPAQUE","doubleSided":false},{"name":"Mat","pbrMetallicRoughness":{"baseColorFactor":[0.5,0.5,0.5,1],"metallicFactor":0,"roughnessFactor":1},"emissiveFactor":[0,0,0],"alphaMode":"OPAQUE","doubleSided":false}],"meshes":[{"name":"Extrude.7-Mesh","primitives":[{"attributes":{"POSITION":0,"NORMAL":1},"indices":2,"material":0,"mode":4}]},{"name":"Cap:1-Mesh","primitives":[{"attributes":{"POSITION":3,"NORMAL":4},"indices":5,"material":1,"mode":4}]},{"name":"Cap:2-Mesh","primitives":[{"attributes":{"POSITION":6,"NORMAL":7},"indices":8,"material":1,"mode":4}]},{"name":"Extrude.6-Mesh","primitives":[{"attributes":{"POSITION":9,"NORMAL":10},"indices":11,"material":2,"mode":4}]},{"name":"Cap:1_1-Mesh","primitives":[{"attributes":{"POSITION":12,"NORMAL":13},"indices":14,"material":1,"mode":4},{"attributes":{"POSITION":15},"indices":16,"material":3,"mode":4}]},{"name":"Cap:2_1-Mesh","primitives":[{"attributes":{"POSITION":17,"NORMAL":18},"indices":19,"material":1,"mode":4},{"attributes":{"POSITION":20},"indices":21,"material":3,"mode":4}]},{"name":"Extrude.5-Mesh","primitives":[{"attributes":{"POSITION":22,"NORMAL":23},"indices":24,"material":0,"mode":4}]},{"name":"Cap:1_2-Mesh","primitives":[{"attributes":{"POSITION":25,"NORMAL":26},"indices":27,"material":1,"mode":4},{"attributes":{"POSITION":28},"indices":29,"material":3,"mode":4}]},{"name":"Cap:2_2-Mesh","primitives":[{"attributes":{"POSITION":30,"NORMAL":31},"indices":32,"material":1,"mode":4},{"attributes":{"POSITION":33},"indices":34,"material":3,"mode":4}]},{"name":"Extrude.4-Mesh","primitives":[{"attributes":{"POSITION":35,"NORMAL":36},"indices":37,"material":2,"mode":4}]},{"name":"Cap:1_3-Mesh","primitives":[{"attributes":{"POSITION":38,"NORMAL":39},"indices":40,"material":1,"mode":4},{"attributes":{"POSITION":41},"indices":42,"material":3,"mode":4}]},{"name":"Cap:2_3-Mesh","primitives":[{"attributes":{"POSITION":43,"NORMAL":44},"indices":45,"material":1,"mode":4},{"attributes":{"POSITION":46},"indices":47,"material":3,"mode":4}]},{"name":"Extrude.3-Mesh","primitives":[{"attributes":{"POSITION":48,"NORMAL":49},"indices":50,"material":0,"mode":4}]},{"name":"Cap:1_4-Mesh","primitives":[{"attributes":{"POSITION":51,"NORMAL":52},"indices":53,"material":1,"mode":4}]},{"name":"Cap:2_4-Mesh","primitives":[{"attributes":{"POSITION":54,"NORMAL":55},"indices":56,"material":1,"mode":4}]},{"name":"Extrude.2-Mesh","primitives":[{"attributes":{"POSITION":57,"NORMAL":58},"indices":59,"material":2,"mode":4}]},{"name":"Cap:1_5-Mesh","primitives":[{"attributes":{"POSITION":60,"NORMAL":61},"indices":62,"material":1,"mode":4},{"attributes":{"POSITION":63},"indices":64,"material":3,"mode":4}]},{"name":"Cap:2_5-Mesh","primitives":[{"attributes":{"POSITION":65,"NORMAL":66},"indices":67,"material":1,"mode":4},{"attributes":{"POSITION":68},"indices":69,"material":3,"mode":4}]},{"name":"Extrude.1-Mesh","primitives":[{"attributes":{"POSITION":70,"NORMAL":71},"indices":72,"material":0,"mode":4}]},{"name":"Cap:1_6-Mesh","primitives":[{"attributes":{"POSITION":73,"NORMAL":74},"indices":75,"material":1,"mode":4},{"attributes":{"POSITION":76},"indices":77,"material":3,"mode":4}]},{"name":"Cap:2_6-Mesh","primitives":[{"attributes":{"POSITION":78,"NORMAL":79},"indices":80,"material":1,"mode":4},{"attributes":{"POSITION":81},"indices":82,"material":3,"mode":4}]},{"name":"Extrude-Mesh","primitives":[{"attributes":{"POSITION":83,"NORMAL":84},"indices":85,"material":4,"mode":4}]},{"name":"Cap:1_7-Mesh","primitives":[{"attributes":{"POSITION":86,"NORMAL":87},"indices":88,"material":1,"mode":4},{"attributes":{"POSITION":89},"indices":90,"material":3,"mode":4}]},{"name":"Cap:2_7-Mesh","primitives":[{"attributes":{"POSITION":91,"NORMAL":92},"indices":93,"material":1,"mode":4},{"attributes":{"POSITION":94},"indices":95,"material":3,"mode":4}]}],"nodes":[{"name":"Extrude.7","mesh":0},{"name":"Cap:1","mesh":1},{"name":"Cap:2","mesh":2},{"name":"Extrude.6","mesh":3},{"name":"Cap:1_1","mesh":4},{"name":"Cap:2_1","mesh":5},{"name":"Extrude.5","mesh":6},{"name":"Cap:1_2","mesh":7},{"name":"Cap:2_2","mesh":8},{"name":"Extrude.4","mesh":9},{"name":"Cap:1_3","mesh":10},{"name":"Cap:2_3","mesh":11},{"name":"Extrude.3","mesh":12},{"name":"Cap:1_4","mesh":13},{"name":"Cap:2_4","mesh":14},{"name":"Extrude.2","mesh":15},{"name":"Cap:1_5","mesh":16},{"name":"Cap:2_5","mesh":17},{"name":"Extrude.1","mesh":18},{"name":"Cap:1_6","mesh":19},{"name":"Cap:2_6","mesh":20},{"name":"Extrude","mesh":21},{"name":"Cap:1_7","mesh":22},{"name":"Cap:2_7","mesh":23}],"scene":0,"scenes":[{"nodes":[0,1,2,3,4,5,6,7,8,9,10,11,12,13,14,15,16,17,18,19,20,21,22,23]}]}
